HIERARCHY
ROOT Hips
{
	OFFSET -0.001795 -0.223333 0.028219
	CHANNELS 6 Xposition Yposition Zposition Zrotation Yrotation Xrotation 
	JOINT LeftUpLeg
	{
		OFFSET 0.069520 -0.091406 -0.006815
		CHANNELS 3 Zrotation Yrotation Xrotation
		JOINT LeftLeg
		{
			OFFSET 0.034277 -0.375199 -0.004496
			CHANNELS 3 Zrotation Yrotation Xrotation
			JOINT LeftFoot
			{
				OFFSET -0.013596 -0.397961 -0.043693
				CHANNELS 3 Zrotation Yrotation Xrotation
				JOINT LeftToe
				{
					OFFSET 0.026358 -0.055791 0.119288
					CHANNELS 3 Zrotation Yrotation Xrotation
					End Site
					{
						OFFSET 0.000000 0.000000 0.000000
					}
				}
			}
		}
	}
	JOINT RightUpLeg
	{
		OFFSET -0.067670 -0.090522 -0.004320
		CHANNELS 3 Zrotation Yrotation Xrotation
		JOINT RightLeg
		{
			OFFSET -0.038290 -0.382569 -0.008850
			CHANNELS 3 Zrotation Yrotation Xrotation
			JOINT RightFoot
			{
				OFFSET 0.015774 -0.398415 -0.042312
				CHANNELS 3 Zrotation Yrotation Xrotation
				JOINT RightToe
				{
					OFFSET -0.025372 -0.048144 0.123348
					CHANNELS 3 Zrotation Yrotation Xrotation
					End Site
					{
						OFFSET 0.000000 0.000000 0.000000
					}
				}
			}
		}
	}
	JOINT Spine
	{
		OFFSET -0.002533 0.108963 -0.026696
		CHANNELS 3 Zrotation Yrotation Xrotation
		JOINT Spine1
		{
			OFFSET 0.005487 0.135180 0.001092
			CHANNELS 3 Zrotation Yrotation Xrotation
			JOINT Spine2
			{
				OFFSET 0.001457 0.052922 0.025425
				CHANNELS 3 Zrotation Yrotation Xrotation
				JOINT Neck
				{
					OFFSET -0.002778 0.213870 -0.042857
					CHANNELS 3 Zrotation Yrotation Xrotation
					JOINT Head
					{
						OFFSET 0.005152 0.064970 0.051349
						CHANNELS 3 Zrotation Yrotation Xrotation
						End Site
						{
							OFFSET 0.000000 0.000000 0.000000
						}
					}
				}
				JOINT LeftShoulder
				{
					OFFSET 0.078845 0.121749 -0.034090
					CHANNELS 3 Zrotation Yrotation Xrotation
					JOINT LeftArm
					{
						OFFSET 0.090977 0.030469 -0.008868
						CHANNELS 3 Zrotation Yrotation Xrotation
						JOINT LeftForeArm
						{
							OFFSET 0.259612 -0.012772 -0.027456
							CHANNELS 3 Zrotation Yrotation Xrotation
							JOINT LeftHand
							{
								OFFSET 0.249234 0.008986 -0.001171
								CHANNELS 3 Zrotation Yrotation Xrotation
								End Site
								{
									OFFSET 0.000000 0.000000 0.000000
								}
							}
						}
					}
				}
				JOINT RightShoulder
				{
					OFFSET -0.081759 0.118833 -0.038615
					CHANNELS 3 Zrotation Yrotation Xrotation
					JOINT RightArm
					{
						OFFSET -0.096012 0.032551 -0.009143
						CHANNELS 3 Zrotation Yrotation Xrotation
						JOINT RightForeArm
						{
							OFFSET -0.253742 -0.013329 -0.021401
							CHANNELS 3 Zrotation Yrotation Xrotation
							JOINT RightHand
							{
								OFFSET -0.255298 0.007772 -0.005559
								CHANNELS 3 Zrotation Yrotation Xrotation
								End Site
								{
									OFFSET 0.000000 0.000000 0.000000
								}
							}
						}
					}
				}
			}
		}
	}
}
MOTION
Frames: 15
Frame Time: 0.050000
0.000000 0.949147 0.000000 3.366244 -8.073702 8.603730 -1.792294 -0.976786 -9.728244 -0.344736 0.199925 -4.978050 -1.353620 0.976743 10.865778 0.000000 0.000000 0.000000 -5.393534 1.007181 -11.928458 1.352177 -0.043727 2.209930 -4.437695 -12.941482 6.440567 0.000000 0.000000 0.000000 6.219340 -1.005667 8.780466 -2.326547 1.140926 1.207000 2.621362 5.402743 5.671383 5.766122 -1.985427 -18.187875 0.000000 0.000000 0.000000 -19.935779 -18.328902 8.202768 -50.747658 -19.979703 2.395691 -50.496630 -78.616940 46.306241 0.000000 0.000000 0.000000 7.483322 27.465320 11.419474 15.128402 41.016442 1.858289 -27.608330 30.059283 -5.837020 0.000000 0.000000 0.000000 
0.000102 0.949443 -0.000165 3.418231 -7.957778 9.283856 -1.388682 -0.911682 -9.310911 -0.792383 0.289787 -6.634785 -3.221713 -1.378715 13.183800 0.000000 0.000000 0.000000 -5.179256 1.047474 -12.319026 0.566037 0.015193 1.642355 -4.805368 -13.928768 7.457903 0.000000 0.000000 0.000000 6.842083 -1.063580 8.451089 -1.567329 0.771656 0.998358 2.159775 5.244979 5.301858 6.565861 -2.619697 -16.911134 0.000000 0.000000 0.000000 -23.856664 -16.682238 7.577482 -45.799720 -19.125954 1.708628 -73.303994 -77.433889 65.905296 0.000000 0.000000 0.000000 6.672666 27.893471 11.460897 12.020921 42.101752 1.016294 -24.487566 28.024999 -4.657109 0.000000 0.000000 0.000000 
0.000238 0.949843 -0.000729 3.579677 -7.870572 9.159954 -1.463990 -0.954117 -9.710882 -0.337285 0.184724 -4.571388 -3.187456 -2.161066 10.871677 0.000000 0.000000 0.000000 -5.242911 1.073514 -12.796127 0.582006 0.029524 2.055449 -5.601414 -15.364598 6.802958 0.000000 0.000000 0.000000 6.940612 -1.065923 8.379913 -2.011908 0.981776 0.963381 2.363653 5.425211 5.172611 5.530511 -2.190015 -15.365057 0.000000 0.000000 0.000000 -21.644607 -16.490798 7.213263 -47.279193 -19.165981 1.852470 -69.637687 -77.453517 62.422503 0.000000 0.000000 0.000000 7.730094 28.097678 11.810079 8.924099 41.629703 0.056819 -22.979724 27.668814 -4.244123 0.000000 0.000000 0.000000 
0.000168 0.949836 -0.001235 3.773822 -6.408697 9.705962 -1.326137 -0.988823 -10.167704 -0.596850 0.225292 -5.217331 -4.492775 -3.952364 11.557927 0.000000 0.000000 0.000000 -5.758593 1.095788 -13.845373 1.144160 -0.001551 2.989791 -6.592388 -17.201502 6.208658 0.000000 0.000000 0.000000 7.494625 -1.130178 8.123357 -1.974644 0.961561 1.432183 2.241531 4.988467 4.508669 6.246384 -2.548649 -15.570289 0.000000 0.000000 0.000000 -21.270421 -17.076035 7.414680 -48.598736 -18.569566 1.795666 -77.495655 -78.221446 70.327131 0.000000 0.000000 0.000000 7.169882 27.749445 11.600215 7.158685 41.452980 -0.439922 -22.313419 28.353452 -4.189639 0.000000 0.000000 0.000000 
0.000048 0.949862 -0.001633 3.927710 -5.389778 9.492887 -1.579353 -1.000887 -10.105059 -0.419410 0.192445 -4.655227 -5.039495 -5.205022 10.600204 0.000000 0.000000 0.000000 -5.865843 1.050480 -13.597981 1.114055 0.007205 3.269573 -6.276527 -16.522990 6.216438 0.000000 0.000000 0.000000 7.920158 -1.244025 8.756369 -2.244785 1.069590 0.673767 2.360308 4.534961 5.126920 5.692324 -2.345934 -14.717146 0.000000 0.000000 0.000000 -20.877564 -17.729597 7.791442 -49.036228 -18.918066 1.905686 -79.260375 -79.136864 72.974734 0.000000 0.000000 0.000000 7.120548 27.148971 11.314710 7.302867 41.467019 -0.425226 -23.583234 29.094645 -4.624830 0.000000 0.000000 0.000000 
-0.000152 0.950225 -0.001909 3.978105 -4.489244 9.739330 -1.649390 -1.025223 -10.311288 -0.671931 0.223278 -5.081284 -5.782977 -5.965469 11.491442 0.000000 0.000000 0.000000 -6.164459 1.036477 -13.944725 1.501604 -0.020717 4.021438 -6.725853 -17.422476 6.384529 0.000000 0.000000 0.000000 8.183694 -1.318948 9.000860 -2.008162 0.953670 0.852479 2.282295 4.745945 4.680296 5.413463 -2.131612 -14.491358 0.000000 0.000000 0.000000 -21.220132 -18.197575 7.862014 -49.119697 -19.050501 2.066869 -85.054980 -79.464462 78.595119 0.000000 0.000000 0.000000 6.432813 26.874961 11.170775 7.136004 41.038518 -0.438926 -24.348386 30.014790 -4.942061 0.000000 0.000000 0.000000 
-0.000312 0.950293 -0.002045 4.046941 -3.703433 9.582372 -1.761017 -1.032693 -10.303826 -0.723354 0.222054 -4.966533 -6.075130 -6.231305 11.771881 0.000000 0.000000 0.000000 -6.416721 0.998842 -13.928125 1.614017 -0.024047 4.580720 -6.745439 -17.416627 6.245580 0.000000 0.000000 0.000000 8.441032 -1.394786 9.384099 -2.030272 0.957319 0.613585 2.094339 4.628978 4.968122 5.836830 -2.311153 -14.918913 0.000000 0.000000 0.000000 -21.468345 -18.334362 7.871458 -49.389155 -18.513983 1.859056 -93.044056 -79.061333 86.002021 0.000000 0.000000 0.000000 6.210581 26.476298 10.991574 7.320155 41.354288 -0.378541 -25.308257 30.189744 -5.200111 0.000000 0.000000 0.000000 
-0.000348 0.950483 -0.002045 3.923533 -3.357849 9.342367 -1.925946 -1.001071 -9.891066 -0.760963 0.223990 -4.964203 -6.132661 -6.243830 11.853113 0.000000 0.000000 0.000000 -6.331203 0.988119 -13.845856 1.693491 -0.021697 5.129775 -6.906829 -17.741105 6.408988 0.000000 0.000000 0.000000 8.852908 -1.479049 9.719377 -2.083753 0.982627 0.813921 1.971544 5.090631 4.714906 6.299568 -2.553855 -14.763719 0.000000 0.000000 0.000000 -21.588063 -18.420911 7.698479 -49.445464 -17.678899 1.591864 -101.826688 -78.019238 93.536590 0.000000 0.000000 0.000000 6.180500 26.110591 10.921219 7.432831 41.744414 -0.302213 -25.056592 30.402567 -5.142208 0.000000 0.000000 0.000000 
-0.000221 0.950462 -0.001867 3.780779 -3.078744 9.212860 -1.967943 -1.012803 -9.976017 -0.754077 0.209356 -4.500657 -5.721572 -5.732048 11.388776 0.000000 0.000000 0.000000 -6.185766 0.987554 -13.820799 1.573738 0.005047 5.541241 -6.960242 -17.840126 6.448937 0.000000 0.000000 0.000000 9.127058 -1.551568 10.065987 -2.162412 1.016042 0.491826 1.962575 5.483348 4.996376 6.912090 -2.832521 -15.131781 0.000000 0.000000 0.000000 -21.833754 -18.288097 7.465849 -49.638637 -16.570955 1.162395 -110.357226 -76.789680 101.024828 0.000000 0.000000 0.000000 5.967265 25.935560 10.874445 7.274115 42.099458 -0.327833 -24.737418 29.629012 -4.891612 0.000000 0.000000 0.000000 
-0.000021 0.950484 -0.001513 3.772802 -2.964494 8.978108 -2.123241 -1.010880 -9.862032 -0.660404 0.194018 -4.217764 -5.401049 -5.330208 11.043559 0.000000 0.000000 0.000000 -6.143959 0.973868 -13.628991 1.490796 0.025613 5.857887 -6.978430 -17.866703 6.444253 0.000000 0.000000 0.000000 9.314028 -1.588182 10.243341 -2.192792 1.029118 0.297168 2.095561 5.827678 5.255911 7.477031 -3.117214 -15.355685 0.000000 0.000000 0.000000 -21.463721 -18.040551 7.178455 -50.100948 -15.894215 0.892732 -116.568566 -75.754509 106.562416 0.000000 0.000000 0.000000 6.149987 25.685321 10.853501 7.237985 42.618117 -0.324558 -24.136273 29.161037 -4.644723 0.000000 0.000000 0.000000 
0.000270 0.950176 -0.001078 3.638566 -2.949805 8.774849 -2.135814 -0.997857 -9.722254 -0.631233 0.182609 -3.909421 -5.186895 -5.195891 10.551037 0.000000 0.000000 0.000000 -6.031918 0.967586 -13.428097 1.421764 0.046347 6.200591 -6.823784 -17.523539 6.148239 0.000000 0.000000 0.000000 9.298683 -1.565881 10.126627 -2.183210 1.025902 0.389242 2.398374 6.154816 5.302222 7.647741 -3.214323 -15.271020 0.000000 0.000000 0.000000 -20.887461 -17.583010 6.791339 -50.522963 -15.284331 0.648658 -120.807924 -74.926180 110.318214 0.000000 0.000000 0.000000 6.925004 25.761817 11.097178 7.046725 42.810438 -0.380720 -23.195732 28.275246 -4.262083 0.000000 0.000000 0.000000 
0.000635 0.949822 -0.000746 3.428995 -3.053803 8.581708 -2.181078 -0.965085 -9.383226 -0.437030 0.167718 -3.910380 -4.901186 -4.919497 10.108136 0.000000 0.000000 0.000000 -5.823532 0.976517 -13.350483 1.389160 0.060121 6.447535 -6.649714 -17.185092 6.284732 0.000000 0.000000 0.000000 9.456607 -1.538272 9.797400 -2.322873 1.097441 0.881039 2.706368 6.442653 5.331035 7.668183 -3.218170 -15.239687 0.000000 0.000000 0.000000 -20.367919 -17.325600 6.561024 -50.610198 -15.319233 0.660559 -123.630003 -74.619647 113.123000 0.000000 0.000000 0.000000 7.280941 25.882160 11.253888 7.114952 43.042531 -0.351460 -22.416433 27.321613 -3.923338 0.000000 0.000000 0.000000 
0.001092 0.949534 -0.000628 3.297937 -3.257190 8.326289 -2.259334 -0.946415 -9.155805 -0.282404 0.151200 -3.769710 -4.571125 -4.467966 9.874762 0.000000 0.000000 0.000000 -5.794777 0.976315 -13.294422 1.365000 0.078602 6.844181 -6.386385 -16.657253 6.289594 0.000000 0.000000 0.000000 9.442703 -1.513683 9.705041 -2.240322 1.063267 1.181607 2.884672 6.750835 5.215277 7.683107 -3.236279 -15.085036 0.000000 0.000000 0.000000 -19.748801 -17.164232 6.383811 -50.573032 -15.513184 0.746087 -126.367627 -74.719170 116.247944 0.000000 0.000000 0.000000 7.798823 25.806435 11.359862 7.372187 43.771541 -0.248081 -22.134602 26.353604 -3.698597 0.000000 0.000000 0.000000 
0.001575 0.949335 -0.000736 3.080413 -3.671893 8.099339 -2.260942 -0.950407 -9.178133 -0.021984 0.114724 -3.320586 -4.099058 -3.911449 9.362051 0.000000 0.000000 0.000000 -5.569430 0.998348 -13.332456 1.296850 0.103478 7.140400 -6.006782 -15.892530 6.207701 0.000000 0.000000 0.000000 9.558958 -1.498997 9.586665 -2.399320 1.146542 1.415301 3.095949 7.028297 5.299320 7.583911 -3.169175 -15.114346 0.000000 0.000000 0.000000 -19.283262 -17.097674 6.317991 -50.270967 -15.896705 0.880853 -128.155030 -74.810862 118.388336 0.000000 0.000000 0.000000 7.997227 25.832169 11.415404 7.626994 44.399005 -0.149769 -22.064987 25.455289 -3.540338 0.000000 0.000000 0.000000 
0.002084 0.948900 -0.000970 2.993668 -3.965043 8.024838 -2.308174 -0.949782 -9.142874 0.151918 0.096906 -3.237832 -3.968533 -3.796937 9.171233 0.000000 0.000000 0.000000 -5.608157 1.015729 -13.582454 1.363954 0.111321 7.585448 -5.907341 -15.702013 6.179891 0.000000 0.000000 0.000000 9.582718 -1.464247 9.335501 -2.469495 1.183861 1.448225 3.220904 7.193701 5.399893 7.406299 -3.079030 -15.008697 0.000000 0.000000 0.000000 -18.833840 -17.020362 6.261194 -50.240686 -16.132928 0.960018 -129.765254 -75.280783 120.695884 0.000000 0.000000 0.000000 8.096471 25.906888 11.469397 7.578149 44.946469 -0.153185 -21.599718 24.548196 -3.307581 0.000000 0.000000 0.000000 
